<svg width="35" height="26" viewBox="0 0 35 26" fill="none" xmlns="http://www.w3.org/2000/svg">
<path d="M32.8712 25.1626C32.4701 25.1633 32.0794 25.0337 31.7566 24.7929L17.6513 14.263L3.54608 24.7929C3.34806 24.941 3.12314 25.0482 2.88418 25.1084C2.64522 25.1685 2.39689 25.1805 2.15337 25.1435C1.90985 25.1066 1.6759 25.0214 1.4649 24.893C1.25389 24.7645 1.06996 24.5953 0.923591 24.3949C0.777225 24.1945 0.671296 23.9669 0.611852 23.7251C0.552409 23.4832 0.540614 23.2319 0.577142 22.9855C0.650914 22.4878 0.917036 22.0402 1.31696 21.7411L16.5368 10.3677C16.8593 10.126 17.25 9.99561 17.6513 9.99561C18.0526 9.99561 18.4434 10.126 18.7659 10.3677L33.9857 21.7411C34.3035 21.9781 34.5392 22.3106 34.6591 22.6912C34.779 23.0718 34.777 23.481 34.6534 23.8604C34.5298 24.2398 34.291 24.57 33.9709 24.8039C33.6508 25.0377 33.2659 25.1633 32.8712 25.1626Z" fill="white"/>
<path d="M32.8709 15.2109C32.4699 15.2116 32.0792 15.082 31.7564 14.8413L17.6511 4.31139L3.54585 14.8413C3.14592 15.1404 2.64494 15.2665 2.15313 15.1919C1.66132 15.1172 1.21895 14.8479 0.923355 14.4432C0.627755 14.0385 0.503134 13.5315 0.576906 13.0339C0.650678 12.5362 0.9168 12.0885 1.31673 11.7894L16.5365 0.415997C16.8591 0.174366 17.2498 0.0439453 17.6511 0.0439453C18.0524 0.0439453 18.4431 0.174366 18.7657 0.415997L33.9855 11.7894C34.3033 12.0264 34.5389 12.359 34.6589 12.7396C34.7788 13.1202 34.7768 13.5294 34.6532 13.9088C34.5296 14.2882 34.2907 14.6184 33.9706 14.8522C33.6506 15.0861 33.2657 15.2116 32.8709 15.2109Z" fill="white"/>
</svg>
